<?xml version="1.0" encoding="UTF-8"?>
<svg viewBox="0 0 1400 360" role="img" aria-labelledby="title desc" xmlns="http://www.w3.org/2000/svg">
  <title id="title">LANE SWITCH Primärlogo</title>
  <desc id="desc">Helle Logoausführung ohne Hintergrundfläche für dunkle Hintergründe</desc>
  <defs><clipPath id="circleClip"><circle cx="180" cy="180" r="142"/></clipPath></defs>
  <circle cx="180" cy="180" r="145" fill="#02304f" stroke="#ffffff" stroke-width="11"/>
  <g clip-path="url(#circleClip)">
    <path d="M18 330 104 62h40l-43 269z" fill="#ffffff"/>
    <path d="M101 331 149 62h42l34 269z" fill="#00b6c6"/>
    <path d="M225 331 198 62h40l104 268z" fill="#0a7ba1"/>
    <path d="M116 329 155 63" fill="none" stroke="#02304f" stroke-width="9"/>
    <path d="M213 329 194 63" fill="none" stroke="#02304f" stroke-width="9"/>
    <path d="m174 82 3 23m-6 24 3 27m-6 27 2 30m-5 31 2 34" fill="none" stroke="#ffffff" stroke-width="8" stroke-linecap="round"/>
  </g>
  <path d="M297 229c-28-56-67-80-125-75v-29l-63 48 63 48v-31c46-3 80 13 111 54z" fill="#ffffff" stroke="#02304f" stroke-width="7" stroke-linejoin="round"/>
  <text x="386" y="175" font-family="Arial,Helvetica,sans-serif" font-size="108" font-weight="800" letter-spacing="1"><tspan fill="#ffffff">LANE</tspan><tspan fill="#00c3d0">SWITCH</tspan></text>
  <rect x="389" y="210" width="89" height="6" rx="3" fill="#00c3d0"/>
  <text x="500" y="223" fill="#b8ccd6" font-family="Arial,Helvetica,sans-serif" font-size="26" font-weight="700" letter-spacing="5.5">FAHRSCHUL-PARTNERKONZEPT</text>
</svg>
